<svg xmlns="http://www.w3.org/2000/svg" width="121" height="29" viewBox="0 0 121 29">
    <path fill="#FFF" fill-rule="evenodd" d="M14.47 4.758H9.934l-2.076 16.83H2.492l2.044-16.83H0L.575 0h14.47l-.575 4.758zM23.318 6.7c3.163 0 5.175 1.133 6.293 2.265 1.15 1.133 1.98 2.784 1.98 5.147 0 2.362-.83 4.142-2.076 5.437-1.086 1.133-3.034 2.46-6.356 2.46-2.875 0-5.143-1.003-6.549-2.428-1.022-1.035-2.012-2.718-2.012-5.178 0-2.104.735-3.852 2.14-5.243 1.054-1.036 3.067-2.46 6.58-2.46zm-.447 11.134c.767 0 1.63-.26 2.268-.939.703-.712 1.086-1.748 1.086-2.978 0-1.359-.543-2.006-.862-2.298-.48-.42-1.246-.712-1.98-.712a3.11 3.11 0 0 0-2.333 1.004c-.638.68-1.086 1.683-1.086 2.88 0 1.133.448 1.813.799 2.201.543.55 1.373.842 2.108.842zm10.893 3.754h5.27l.671-5.47h4.568l-.67 5.47h5.27L50.63 7.121h-5.271l-.607 4.887h-4.568l.607-4.887h-5.27l-1.757 14.467zm21.05 0l1.278-10.357h-3.897l.479-4.11h13.033l-.511 4.11h-3.897l-1.246 10.357h-5.239zM67.783 7.121h5.27l-.415 1.844C74.491 7.282 75.801 6.7 77.653 6.7c3.61 0 5.878 2.686 5.878 6.99 0 5.018-2.715 8.319-6.804 8.319-2.172 0-3.737-.874-5.143-2.88L70.37 29h-5.238l2.651-21.88zm7.027 10.713c1.949 0 3.354-1.651 3.354-3.917 0-1.844-1.086-3.01-2.81-3.01-1.949 0-3.386 1.683-3.386 3.884 0 1.845 1.118 3.043 2.842 3.043zm26.673-2.395h-10.67c0 .517 0 1.78.736 2.46.255.258.766.55 1.629.55.447 0 .926-.097 1.341-.389a1.76 1.76 0 0 0 .703-.97h5.75c-.352 1.067-.927 1.974-1.565 2.62-1.821 1.91-4.504 2.299-6.197 2.299-3.003 0-4.664-1.165-5.463-1.91-.926-.906-1.948-2.524-1.948-5.114 0-2.783 1.118-4.79 2.332-5.987 1.245-1.23 3.194-2.298 6.1-2.298 2.684 0 4.377.97 5.4 2.006 1.469 1.49 1.916 3.625 1.916 5.503 0 .42-.032.841-.064 1.23zm-10.318-3.01h4.983c-.032-.68-.32-1.327-.734-1.716-.384-.356-.959-.582-1.661-.582-.735 0-1.406.29-1.821.712-.415.42-.67 1.068-.767 1.586zM105.38 7.12l-1.725 14.467h5.27l.703-5.826c.767 1.36 1.31 2.04 1.853 2.784l2.236 3.042h6.42l-5.494-7.12L121 7.12h-6.389l-4.695 6.15.734-6.15h-5.27z"/>
</svg>
